<svg xmlns="http://www.w3.org/2000/svg" width="23.822" height="21.917" viewBox="0 0 23.822 21.917">
  <g id="Group_6688" data-name="Group 6688" transform="translate(-99.733 -250.828)">
    <path id="Path_2025" data-name="Path 2025" d="M119.857,271.451c-2.367.067-2.008-2.443-2.008-2.443v-13.06a4.3,4.3,0,0,1,3.138,0,2.734,2.734,0,0,1,1.313,2.443v10.617c0,2.949-2.443,2.443-2.443,2.443H103.434c-2.219,0-2.443-1.384-2.443-2.443,0-.01,0-.226,0-.226V255.306s-.2-3.261,2.645-3.224l11.428,0s.276,0,.275,0c1.034,0,2.511.352,2.511,2.791v1.079" transform="translate(0 0)" fill="none" stroke="#8a8a8a" stroke-linejoin="round" stroke-width="2.5"/>
    <rect id="Rectangle_6270" data-name="Rectangle 6270" width="10.345" height="5.747" transform="translate(104.049 257.763)" fill="none" stroke="#8a8a8a" stroke-linejoin="round" stroke-width="2.5"/>
    <path id="Path_2026" data-name="Path 2026" d="M110.441,285.889H117.9" transform="translate(-4.786 -19.176)" fill="none" stroke="#8a8a8a" stroke-linejoin="round" stroke-width="2.5"/>
  </g>
</svg>
