<svg xmlns="http://www.w3.org/2000/svg" width="25" height="25" viewBox="0 0 25 25">
  <path id="Path_688" data-name="Path 688" d="M8.04,25.607a3.125,3.125,0,0,0,4.42,0l-4.422-4.42a3.125,3.125,0,0,0,0,4.42Zm7.5-19.3a7.892,7.892,0,0,1,9.934-1,1.436,1.436,0,0,1,.1-.116A1.578,1.578,0,1,1,27.689,7.53a7.887,7.887,0,0,1-1,9.931l-1.133,1.133A23.053,23.053,0,0,0,21.944,23.6l-2.358,4.712a1.072,1.072,0,0,1-1.83.292L4.389,15.242a1.076,1.076,0,0,1,.292-1.831L9.4,11.054A22.988,22.988,0,0,0,14.4,7.442l1.133-1.133Zm4.279,15.046a24.922,24.922,0,0,1,3.678-4.972l1.133-1.134a4.762,4.762,0,0,0,.6-5.992A7.564,7.564,0,0,0,23.89,7.914a4.771,4.771,0,0,0-6,.6L16.407,10a23.018,23.018,0,0,1-5,3.611L8.687,14.974l9.484,9.482,1.645-3.1Z" transform="translate(-4 -4)" fill="#8a8a8a" fill-rule="evenodd"/>
</svg>
