<svg xmlns="http://www.w3.org/2000/svg" width="11.646" height="8.152" viewBox="0 0 11.646 8.152">
  <path id="solid_cloud-upload-alt" data-name="solid cloud-upload-alt" d="M9.782,35.541a1.749,1.749,0,0,0-1.63-2.376,1.738,1.738,0,0,0-.97.295,2.912,2.912,0,0,0-5.435,1.452c0,.049,0,.1,0,.147a2.621,2.621,0,0,0,.87,5.093h6.7a2.329,2.329,0,0,0,.466-4.611ZM7.158,36.658H5.968V38.7a.292.292,0,0,1-.291.291H4.8a.292.292,0,0,1-.291-.291V36.658H3.323a.291.291,0,0,1-.206-.5l1.918-1.918a.292.292,0,0,1,.411,0l1.918,1.918a.291.291,0,0,1-.206.5Z" transform="translate(0 -32)" fill="#1d1d1d"/>
</svg>
