<svg xmlns="http://www.w3.org/2000/svg" width="8.697" height="9.94" viewBox="0 0 8.697 9.94">
  <path id="solid_trash-alt" data-name="solid trash-alt" d="M.621,9.008a.932.932,0,0,0,.932.932H7.144a.932.932,0,0,0,.932-.932V2.485H.621ZM5.9,4.038a.311.311,0,1,1,.621,0V8.386a.311.311,0,0,1-.621,0Zm-1.864,0a.311.311,0,1,1,.621,0V8.386a.311.311,0,0,1-.621,0Zm-1.864,0a.311.311,0,1,1,.621,0V8.386a.311.311,0,0,1-.621,0ZM8.387.621H6.057L5.874.258A.466.466,0,0,0,5.457,0H3.238a.46.46,0,0,0-.415.258L2.64.621H.311A.311.311,0,0,0,0,.932v.621a.311.311,0,0,0,.311.311H8.387A.311.311,0,0,0,8.7,1.553V.932A.311.311,0,0,0,8.387.621Z" transform="translate(0 0)" fill="#fff"/>
</svg>
