<svg xmlns="http://www.w3.org/2000/svg" width="12.736" height="14.466" viewBox="0 0 12.736 14.466">
  <path id="solid_calendar-alt" data-name="solid calendar-alt" d="M0,13.11a1.361,1.361,0,0,0,1.365,1.356H11.371a1.361,1.361,0,0,0,1.365-1.356V5.425H0ZM9.1,7.572a.341.341,0,0,1,.341-.339h1.137a.341.341,0,0,1,.341.339V8.7a.341.341,0,0,1-.341.339H9.438A.341.341,0,0,1,9.1,8.7Zm0,3.616a.341.341,0,0,1,.341-.339h1.137a.341.341,0,0,1,.341.339v1.13a.341.341,0,0,1-.341.339H9.438a.341.341,0,0,1-.341-.339ZM5.458,7.572A.341.341,0,0,1,5.8,7.233H6.936a.341.341,0,0,1,.341.339V8.7a.341.341,0,0,1-.341.339H5.8A.341.341,0,0,1,5.458,8.7Zm0,3.616a.341.341,0,0,1,.341-.339H6.936a.341.341,0,0,1,.341.339v1.13a.341.341,0,0,1-.341.339H5.8a.341.341,0,0,1-.341-.339ZM1.819,7.572a.341.341,0,0,1,.341-.339H3.3a.341.341,0,0,1,.341.339V8.7a.341.341,0,0,1-.341.339H2.16A.341.341,0,0,1,1.819,8.7Zm0,3.616a.341.341,0,0,1,.341-.339H3.3a.341.341,0,0,1,.341.339v1.13a.341.341,0,0,1-.341.339H2.16a.341.341,0,0,1-.341-.339Zm9.552-9.38H10.007V.452A.455.455,0,0,0,9.552,0h-.91a.455.455,0,0,0-.455.452V1.808H4.548V.452A.455.455,0,0,0,4.094,0h-.91a.455.455,0,0,0-.455.452V1.808H1.365A1.361,1.361,0,0,0,0,3.164V4.521H12.736V3.164A1.361,1.361,0,0,0,11.371,1.808Z" fill="#e3e3e3"/>
</svg>
