<svg xmlns="http://www.w3.org/2000/svg" width="8.582" height="9.808" viewBox="0 0 8.582 9.808">
  <path id="solid_bell" data-name="solid bell" d="M4.29,9.808A1.226,1.226,0,0,0,5.516,8.582H3.065A1.226,1.226,0,0,0,4.29,9.808ZM8.416,6.94A3.564,3.564,0,0,1,7.354,3.984,3.025,3.025,0,0,0,4.9,1.012v-.4a.613.613,0,1,0-1.225,0v.4A3.025,3.025,0,0,0,1.227,3.984,3.564,3.564,0,0,1,.164,6.94.6.6,0,0,0,0,7.356a.614.614,0,0,0,.615.613H7.966a.613.613,0,0,0,.615-.613A.6.6,0,0,0,8.416,6.94Z" transform="translate(0.001)" fill="#1d1d1d"/>
</svg>
