<svg xmlns="http://www.w3.org/2000/svg" width="10.783" height="9.583" viewBox="0 0 10.783 9.583">
  <path id="solid_edit" data-name="solid edit" d="M7.537,1.656,9.225,3.344a.183.183,0,0,1,0,.258L5.137,7.691,3.4,7.884a.364.364,0,0,1-.4-.4L3.19,5.744,7.279,1.656a.183.183,0,0,1,.258,0Zm3.033-.429L9.656.313a.732.732,0,0,0-1.033,0L7.96.976a.183.183,0,0,0,0,.258L9.649,2.923a.183.183,0,0,0,.258,0l.663-.663a.732.732,0,0,0,0-1.033ZM7.189,6.579V8.485H1.2V2.494H5.5a.23.23,0,0,0,.159-.066l.749-.749A.225.225,0,0,0,6.249,1.3H.9a.9.9,0,0,0-.9.9v6.59a.9.9,0,0,0,.9.9h6.59a.9.9,0,0,0,.9-.9V5.83A.225.225,0,0,0,8,5.671l-.749.749A.23.23,0,0,0,7.189,6.579Z" transform="translate(0 -0.1)" fill="#fff"/>
</svg>
